HIERARCHY
ROOT Hips
{
	OFFSET 0.00000 0.00000 0.00000
	CHANNELS 6 Xposition Yposition Zposition Zrotation Yrotation Xrotation 
	JOINT LHipJoint
	{
		OFFSET 0 0 0
		CHANNELS 3 Zrotation Yrotation Xrotation
		JOINT LeftUpLeg
		{
			OFFSET 2.36090 -1.39315 1.24752
			CHANNELS 3 Zrotation Yrotation Xrotation
			JOINT LeftLeg
			{
				OFFSET 2.06810 -5.68207 0.00000
				CHANNELS 3 Zrotation Yrotation Xrotation
				JOINT LeftFoot
				{
					OFFSET 2.46631 -6.77613 0.00000
					CHANNELS 3 Zrotation Yrotation Xrotation
					JOINT LeftToeBase
					{
						OFFSET 0.26031 -0.71520 1.99545
						CHANNELS 3 Zrotation Yrotation Xrotation
						End Site
						{
							OFFSET 0.00000 -0.00000 1.05957
						}
					}
				}
			}
		}
	}
	JOINT RHipJoint
	{
		OFFSET 0 0 0
		CHANNELS 3 Zrotation Yrotation Xrotation
		JOINT RightUpLeg
		{
			OFFSET -2.25243 -1.39315 1.24752
			CHANNELS 3 Zrotation Yrotation Xrotation
			JOINT RightLeg
			{
				OFFSET -2.17343 -5.97145 0.00000
				CHANNELS 3 Zrotation Yrotation Xrotation
				JOINT RightFoot
				{
					OFFSET -2.52372 -6.93386 0.00000
					CHANNELS 3 Zrotation Yrotation Xrotation
					JOINT RightToeBase
					{
						OFFSET -0.22538 -0.61923 2.11447
						CHANNELS 3 Zrotation Yrotation Xrotation
						End Site
						{
							OFFSET -0.00000 -0.00000 1.10506
						}
					}
				}
			}
		}
	}
	JOINT LowerBack
	{
		OFFSET 0 0 0
		CHANNELS 3 Zrotation Yrotation Xrotation
		JOINT Spine
		{
			OFFSET 0.01594 2.13103 0.08007
			CHANNELS 3 Zrotation Yrotation Xrotation
			JOINT Spine1
			{
				OFFSET 0.01393 2.09723 0.18338
				CHANNELS 3 Zrotation Yrotation Xrotation
				JOINT Neck
				{
					OFFSET 0 0 0
					CHANNELS 3 Zrotation Yrotation Xrotation
					JOINT Neck1
					{
						OFFSET 0.05351 1.38915 0.32494
						CHANNELS 3 Zrotation Yrotation Xrotation
						JOINT Head
						{
							OFFSET 0.00711 1.45992 -0.21666
							CHANNELS 3 Zrotation Yrotation Xrotation
							End Site
							{
								OFFSET -0.00433 1.47702 -0.11056
							}
						}
					}
				}
				JOINT LeftShoulder
				{
					OFFSET 0 0 0
					CHANNELS 3 Zrotation Yrotation Xrotation
					JOINT LeftArm
					{
						OFFSET 2.87198 0.92249 0.11132
						CHANNELS 3 Zrotation Yrotation Xrotation
						JOINT LeftForeArm
						{
							OFFSET 5.52731 -0.00000 0.00000
							CHANNELS 3 Zrotation Yrotation Xrotation
							JOINT LeftHand
							{
								OFFSET 3.11059 -0.00000 0.00000
								CHANNELS 3 Zrotation Yrotation Xrotation
								JOINT LeftFingerBase
								{
									OFFSET 0 0 0
									CHANNELS 3 Zrotation Yrotation Xrotation
									JOINT LeftHandIndex1
									{
										OFFSET 0.41963 -0.00000 0.00000
										CHANNELS 3 Zrotation Yrotation Xrotation
										End Site
										{
											OFFSET 0.33831 -0.00000 0.00000
										}
									}
								}
								JOINT LThumb
								{
									OFFSET 0 0 0
									CHANNELS 3 Zrotation Yrotation Xrotation
									End Site
									{
										OFFSET 0.34348 -0.00000 0.34348
									}
								}
							}
						}
					}
				}
				JOINT RightShoulder
				{
					OFFSET 0 0 0
					CHANNELS 3 Zrotation Yrotation Xrotation
					JOINT RightArm
					{
						OFFSET -2.94710 0.68072 0.32187
						CHANNELS 3 Zrotation Yrotation Xrotation
						JOINT RightForeArm
						{
							OFFSET -5.25396 -0.00000 -0.00000
							CHANNELS 3 Zrotation Yrotation Xrotation
							JOINT RightHand
							{
								OFFSET -3.10567 -0.00000 0.00000
								CHANNELS 3 Zrotation Yrotation Xrotation
								JOINT RightFingerBase
								{
									OFFSET 0 0 0
									CHANNELS 3 Zrotation Yrotation Xrotation
									JOINT RightHandIndex1
									{
										OFFSET -0.49868 -0.00000 0.00000
										CHANNELS 3 Zrotation Yrotation Xrotation
										End Site
										{
											OFFSET -0.40204 -0.00000 0.00000
										}
									}
								}
								JOINT RThumb
								{
									OFFSET 0 0 0
									CHANNELS 3 Zrotation Yrotation Xrotation
									End Site
									{
										OFFSET -0.40818 -0.00000 0.40818
									}
								}
							}
						}
					}
				}
			}
		}
	}
}
MOTION
Frames: 8
Frame Time: .0083333
8.5744 16.0343 24.3318 0 0 0 0 0 0 -21 0 0 0 0 0 0 0 0 0 0 0 0 0 0 21 0 0 0 0 0 0 0 0 0 0 0 0 0 0 0 0 0 0 0 0 0 0 -16 0 0 21 0 0 11 0 0 0 -8 0 0 0 0 0 0 0 0 0 0 0 0 0 0 0 0 0 0 0 0 8 0 0 0 0 0 0 0 0 0 0 0 0 0 0 0 0 0
8.5744 16.0343 24.3318 -90.5672 -62.0075 104.7710 0.0000 0.0000 0.0000 4.7521 0.8006 -32.9696 2.2553 9.3787 26.9872 1.3083 -8.9297 -20.5030 5.1719 -13.5748 -41.5601 0.0000 0.0000 0.0000 39.3418 -3.2196 -138.9880 -37.7505 -9.3676 153.0480 -1.2862 -18.5806 22.5450 -0.2385 -3.1432 8.6777 -13.4860 8.9259 4.7549 4.2376 11.3581 0.0631 10.6081 6.1262 -6.1003 -0.6918 -1.0595 -35.8987 9.9376 -3.6723 14.5270 3.1333 -0.4049 10.6292 -0.0000 -0.0000 0.0000 -56.3723 -2.0610 -1.3239 20.7117 -31.4903 -5.8986 -0.0000 0.0000 -22.1778 30.5074 -2.7928 -1.6444 -7.1250 0.0000 -0.0000 2.9831 26.7366 -1.3238 -0.0000 -0.0000 0.0000 75.5373 6.1080 65.8667 -15.8947 25.3776 -3.6007 0.0000 0.0000 7.5159 -3.1879 -27.7987 1.4879 7.1250 -0.0000 -0.0000 28.9362 -55.3623 -7.8386
8.5681 16.0389 24.3223 -89.9235 -61.9061 104.3140 0.0000 0.0000 0.0000 4.9733 0.7343 -33.1431 2.2425 9.3539 26.9086 1.3223 -9.0012 -20.6158 5.2965 -13.7101 -42.0886 0.0000 0.0000 0.0000 39.7109 -3.0175 -139.1885 -37.7780 -9.3139 153.2178 -1.3106 -18.7010 22.7410 -0.1541 -2.5292 6.9706 -13.5733 8.8649 4.5411 4.2102 11.2990 -0.0562 10.6613 6.1094 -6.1045 -0.8668 -1.2207 -35.9083 10.0738 -3.8451 14.6044 3.1820 -0.4725 10.6790 -0.0000 0.0000 0.0000 -55.7781 -2.1764 -2.2323 20.3009 -31.0032 -5.6855 -0.0000 0.0000 -22.4635 30.6372 -2.4423 -1.4458 -7.1250 0.0000 -0.0000 3.1005 27.1385 -1.3467 -0.0000 0.0000 0.0000 75.5761 5.7968 65.7036 -16.0193 25.5468 -3.6543 0.0000 0.0000 7.2574 -3.1692 -27.3833 1.4588 7.1250 -0.0000 -0.0000 28.6543 -54.9964 -7.4886
8.5629 16.0457 24.3137 -89.3270 -61.7955 103.9140 0.0000 0.0000 0.0000 5.2082 0.6395 -33.3034 2.2275 9.3247 26.8162 1.3363 -9.0361 -20.7258 5.4029 -13.8236 -42.5355 0.0000 0.0000 0.0000 40.1623 -3.2141 -139.3644 -37.8016 -9.2677 153.3635 -1.3407 -18.5724 22.8832 -0.1505 -2.4996 6.8885 -13.6278 8.7869 4.3149 4.1479 11.2182 -0.1756 10.6642 6.0777 -6.0809 -1.0100 -1.3177 -35.7480 10.2760 -3.9469 14.5207 3.2575 -0.5080 10.6408 -0.0000 -0.0000 0.0000 -55.0786 -2.2309 -3.1814 19.9322 -30.5606 -5.4969 -0.0000 0.0000 -22.7611 30.5693 -2.0968 -1.2381 -7.1250 0.0000 -0.0000 3.0657 27.5410 -1.3025 -0.0000 -0.0000 0.0000 75.7237 5.5540 65.5682 -16.0853 25.6361 -3.6828 0.0000 0.0000 7.0216 -3.3317 -26.9368 1.5106 7.1250 -0.0000 -0.0000 28.1853 -54.6363 -7.0947
8.5590 16.0528 24.3054 -88.9160 -61.6457 103.6830 0.0000 0.0000 0.0000 5.4631 0.6165 -33.4506 2.2131 9.2966 26.7276 1.3512 -8.9837 -20.8358 5.5109 -13.9371 -42.9859 0.0000 0.0000 0.0000 40.5953 -3.3380 -139.4356 -37.8161 -9.2390 153.4542 -1.3710 -18.3527 22.9958 -0.1555 -2.5408 7.0029 -13.6338 8.7813 4.1271 4.0966 11.2326 -0.3027 10.6254 6.0951 -6.1084 -1.1903 -1.4799 -35.6978 10.3897 -4.1062 14.5355 3.2989 -0.5767 10.6571 -0.0000 -0.0000 0.0000 -54.6135 -2.3492 -4.3137 19.7463 -30.3355 -5.4026 -0.0000 0.0000 -23.1320 30.8578 -1.7029 -1.0172 -7.1250 0.0000 -0.0000 3.3072 27.9911 -1.3702 -0.0000 -0.0000 0.0000 75.8653 5.3203 65.3491 -16.0720 25.6182 -3.6771 0.0000 0.0000 6.9158 -3.3982 -26.4788 1.5166 7.1250 -0.0000 -0.0000 27.8081 -54.2462 -6.7139
8.5549 16.0592 24.2970 -88.4694 -61.5010 103.4070 0.0000 0.0000 0.0000 5.7176 0.5718 -33.5801 2.1973 9.2654 26.6292 1.3659 -8.9372 -20.9446 5.6200 -14.0497 -43.4367 0.0000 0.0000 0.0000 41.0403 -3.4522 -139.5094 -37.8318 -9.2081 153.5516 -1.3869 -18.2401 23.0568 -0.1556 -2.5416 7.0050 -13.6586 8.7496 3.9360 4.0497 11.2115 -0.4207 10.6108 6.0940 -6.1184 -1.3380 -1.6060 -35.6291 10.5045 -4.2332 14.5503 3.3412 -0.6292 10.6685 0.0000 -0.0000 0.0000 -54.0579 -2.4024 -5.3016 19.5257 -30.0666 -5.2916 -0.0000 0.0000 -23.5411 31.0326 -1.3063 -0.7858 -7.1250 0.0000 -0.0000 3.4618 28.4489 -1.3970 0.0000 -0.0000 0.0000 76.0004 5.0935 65.1907 -16.0845 25.6350 -3.6824 0.0000 0.0000 6.7539 -3.4788 -26.0116 1.5272 7.1250 -0.0000 -0.0000 27.4194 -53.8488 -6.3327
8.5514 16.0659 24.2889 -88.0875 -61.3455 103.1810 0.0000 0.0000 0.0000 5.9823 0.5259 -33.6836 2.1817 9.2348 26.5326 1.3828 -8.8354 -21.0666 5.7301 -14.1616 -43.8887 0.0000 0.0000 0.0000 41.5087 -3.6141 -139.5327 -37.8438 -9.1842 153.6268 -1.3970 -18.1051 23.0746 -0.1655 -2.6207 7.2246 -13.6785 8.7222 3.7539 4.0079 11.1955 -0.5321 10.5972 6.0948 -6.1277 -1.4655 -1.7140 -35.5677 10.5941 -4.3409 14.5810 3.3750 -0.6743 10.6844 -0.0000 -0.0000 0.0000 -53.5245 -2.4070 -6.2570 19.3653 -29.8701 -5.2115 -0.0000 0.0000 -24.0047 31.2474 -0.8962 -0.5437 -7.1250 0.0000 -0.0000 3.6486 28.9235 -1.4315 -0.0000 -0.0000 0.0000 76.1416 4.8931 65.0607 -16.0733 25.6200 -3.6776 0.0000 0.0000 6.6137 -3.5438 -25.5180 1.5282 7.1250 -0.0000 -0.0000 27.0369 -53.4233 -5.9419
8.5484 16.0725 24.2813 -87.7658 -61.1826 102.9950 0.0000 0.0000 0.0000 6.2487 0.4919 -33.7547 2.1643 9.2003 26.4240 1.3996 -8.7086 -21.1870 5.8353 -14.2668 -44.3170 0.0000 0.0000 0.0000 41.9955 -3.8051 -139.5058 -37.8528 -9.1661 153.6837 -1.4050 -17.9396 23.0698 -0.1762 -2.7042 7.4562 -13.6953 8.7013 3.5838 3.9713 11.1870 -0.6361 10.5848 6.0989 -6.1385 -1.5657 -1.8115 -35.5393 10.6513 -4.4440 14.6529 3.3944 -0.7174 10.7188 0.0000 -0.0000 0.0000 -53.0127 -2.3679 -7.1663 19.2588 -29.7390 -5.1586 -0.0000 0.0000 -24.4929 31.5228 -0.4877 -0.2991 -7.1250 0.0000 -0.0000 3.8834 29.3975 -1.4802 0.0000 -0.0000 0.0000 76.2804 4.7118 64.9575 -16.0482 25.5860 -3.6668 0.0000 0.0000 6.5000 -3.5607 -24.9920 1.5059 7.1250 -0.0000 -0.0000 26.6883 -52.9588 -5.5411
